<?xml version="1.0" standalone="no"?>
<!DOCTYPE svg PUBLIC "-//W3C//DTD SVG 20010904//EN"
 "http://www.w3.org/TR/2001/REC-SVG-20010904/DTD/svg10.dtd">
<svg version="1.0" xmlns="http://www.w3.org/2000/svg"
 width="429.000000pt" height="429.000000pt" viewBox="0 0 429.000000 429.000000"
 preserveAspectRatio="xMidYMid meet">
<metadata>
Created by potrace 1.11, written by Peter Selinger 2001-2013
</metadata>
<g transform="translate(0.000000,429.000000) scale(0.100000,-0.100000)"
fill="#000000" stroke="none">
<path d="M440 4267 c-135 -41 -240 -112 -318 -218 -38 -52 -89 -151 -97 -189
-2 -8 -8 -36 -14 -62 -8 -33 -11 -542 -10 -1660 0 -1566 1 -1615 20 -1688 51
-195 203 -356 399 -423 l65 -22 1635 -2 c1808 -3 1695 -7 1835 62 139 67 250
193 303 344 l27 76 2 1635 c3 1793 6 1693 -56 1825 -59 125 -152 219 -276 280
-138 68 -30 65 -1820 64 l-1620 0 -75 -22z"/>
</g>
</svg>
